<svg width="125" height="125" viewBox="0 0 125 125" fill="none" xmlns="http://www.w3.org/2000/svg">
<path d="M106.721 18.3053C94.9122 6.50014 79.2145 0 62.516 0C45.8175 0 30.1184 6.50014 18.311 18.3053C6.50234 30.1106 0 45.806 0 62.5C0 79.194 6.50097 94.8895 18.3097 106.695C30.117 118.5 45.8161 125 62.5146 125C79.2131 125 94.9122 118.5 106.721 106.695C131.093 82.326 131.093 42.674 106.721 18.3053ZM96.731 61.5151L90.0953 68.1498C88.7591 69.485 86.9829 70.2199 85.0955 70.2199C83.208 70.2199 81.4319 69.485 80.0971 68.1498L75.2031 63.2569V96.1532C75.2031 100.052 72.0317 103.223 68.1344 103.223H56.0411C54.1523 103.223 52.3762 102.487 51.0413 101.152C49.7065 99.8168 48.9697 98.0406 48.9697 96.1532V63.2583L44.0798 68.1498C42.7409 69.485 40.9634 70.2199 39.0773 70.2199C37.1871 70.2199 35.411 69.485 34.0775 68.1471L27.4404 61.5151C24.6869 58.7637 24.6842 54.2787 27.4377 51.5204L57.0873 21.8796C58.3053 20.657 59.9302 19.9318 61.676 19.8315C61.9221 19.8026 62.1805 19.8013 62.4802 19.8287C64.2014 19.9139 65.8483 20.6419 67.0882 21.8796L73.7239 28.5144C73.7487 28.5377 73.772 28.5624 73.794 28.5872L96.731 51.5162C98.0672 52.8514 98.804 54.6289 98.804 56.5164C98.804 58.4051 98.0658 60.1813 96.731 61.5151Z" fill="#008037"/>
</svg>
