<svg width="119" height="119" viewBox="0 0 119 119" fill="none" xmlns="http://www.w3.org/2000/svg">
<path d="M101.504 101.361C90.319 112.551 75.4505 118.712 59.6341 118.712C43.8177 118.712 28.9479 112.551 17.7643 101.361C6.57939 90.1706 0.420532 75.293 0.420532 59.4688C0.420532 43.6432 6.57808 28.7669 17.763 17.5768C28.9466 6.38674 43.8164 0.225281 59.6328 0.225281C75.4492 0.225281 90.319 6.38674 101.504 17.5768C124.589 40.6758 124.589 78.2617 101.504 101.361ZM92.0416 60.4024L85.7565 54.1133C84.4908 52.8477 82.8086 52.1511 81.0208 52.1511C79.233 52.1511 77.5507 52.8477 76.2864 54.1133L71.651 58.7513V27.569C71.651 23.8737 68.6471 20.8672 64.9557 20.8672H53.5013C51.7122 20.8672 50.0299 21.5651 48.7656 22.8307C47.5013 24.0964 46.8033 25.78 46.8033 27.569V58.75L42.1718 54.1133C40.9036 52.8477 39.22 52.1511 37.4336 52.1511C35.6432 52.1511 33.9609 52.8477 32.6979 54.1159L26.4114 60.4024C23.8033 63.0104 23.8007 67.2617 26.4088 69.8763L54.4921 97.9727C55.6458 99.1315 57.1849 99.819 58.8385 99.9141C59.0716 99.9414 59.3164 99.9427 59.6002 99.9167C61.2304 99.836 62.7903 99.1459 63.9648 97.9727L70.25 91.6836C70.2734 91.6615 70.2955 91.638 70.3164 91.6146L92.0416 69.8802C93.3073 68.6146 94.0052 66.9297 94.0052 65.1406C94.0052 63.3503 93.306 61.6667 92.0416 60.4024Z" fill="#FF1616"/>
</svg>
